<svg id="Layer_1" data-name="Layer 1" xmlns="http://www.w3.org/2000/svg" width="260" height="235.58" viewBox="0 0 260 235.58"><defs><style>.cls-1,.cls-2{fill:#f58025;}.cls-1{opacity:0.5;isolation:isolate;}</style></defs><title>WMCA_Safari_Favicon</title><path class="cls-1" d="M84.46,12.21A37.23,37.23,0,0,0,51.14,31.75h0V84.61l79.29-46-46-26.43M255.69,111h0l-46-26.43v90.78l46-26.43h0A43.84,43.84,0,0,0,255.69,111ZM51.14,228.25c6.89,11.5,19.53,19.54,33.32,19.54l46-26.43-79.29-46v52.86" transform="translate(0 -12.21)"/><path class="cls-2" d="M209.72,31.75c-6.89-11.5-19.53-19.54-33.32-19.54H84.46L255.69,111Zm-33.32,216a37.23,37.23,0,0,0,33.32-19.54l46-79.29L84.46,247.79ZM5.17,149l46,79.29V31.75L5.17,111A37.37,37.37,0,0,0,5.17,149Z" transform="translate(0 -12.21)"/></svg>